<?xml version="1.0" encoding="UTF-8" standalone="no"?>
<svg
   xmlns:dc="http://purl.org/dc/elements/1.1/"
   xmlns:cc="http://creativecommons.org/ns#"
   xmlns:rdf="http://www.w3.org/1999/02/22-rdf-syntax-ns#"
   xmlns:svg="http://www.w3.org/2000/svg"
   xmlns="http://www.w3.org/2000/svg"
   xmlns:sodipodi="http://sodipodi.sourceforge.net/DTD/sodipodi-0.dtd"
   xmlns:inkscape="http://www.inkscape.org/namespaces/inkscape"
   width="64px"
   height="64px"
   viewBox="0 0 64 64"
   version="1.1"
   id="svg8"
   sodipodi:docname="Icon.svg"
   inkscape:export-filename="Icon.png"
   inkscape:export-xdpi="192"
   inkscape:export-ydpi="192">
  <defs
     id="defs845" />
  <sodipodi:namedview
     pagecolor="#ffffff"
     bordercolor="#666666"
     borderopacity="1"
     objecttolerance="10"
     gridtolerance="10"
     guidetolerance="10"
     inkscape:pageopacity="0"
     inkscape:pageshadow="2"
     inkscape:window-width="1920"
     inkscape:window-height="1137"
     id="namedview843"
     showgrid="false"
     inkscape:zoom="15.40625"
     inkscape:cx="32"
     inkscape:cy="32"
     inkscape:window-x="1912"
     inkscape:window-y="-8"
     inkscape:window-maximized="1"
     inkscape:current-layer="svg8" />
  <metadata
     id="metadata5">
    <rdf:RDF>
      <cc:Work
         rdf:about="">
        <dc:format>image/svg+xml</dc:format>
        <dc:type
           rdf:resource="http://purl.org/dc/dcmitype/StillImage" />
        <dc:title />
      </cc:Work>
    </rdf:RDF>
  </metadata>
  <path
     style="fill:#000000;fill-opacity:1;stroke:none;stroke-width:0"
     d="M 31.986328 0.74804688 C 30.093828 0.74804688 28.264873 0.98719712 26.505859 1.4746094 L 26.501953 1.4746094 L 26.501953 1.4804688 C 24.774284 1.9651004 23.143651 2.6520417 21.623047 3.5390625 C 20.102765 4.4258765 18.718405 5.494508 17.472656 6.7402344 C 16.22794 7.9849038 15.155288 9.3688037 14.267578 10.890625 C 13.378282 12.415067 12.690812 14.060933 12.207031 15.806641 C 11.719894 17.564413 11.480469 19.380296 11.480469 21.253906 L 11.480469 30.849609 L 10.501953 30.849609 C 10.01176 30.849609 9.5146848 30.953732 9.0664062 31.177734 L 9.046875 31.1875 L 9.0332031 31.195312 C 8.6615831 31.395461 8.3228802 31.655521 8.015625 31.962891 L 7.9707031 32.007812 L 7.9296875 32.058594 C 7.687027 32.362149 7.4988119 32.706805 7.3769531 33.072266 C 7.2622868 33.416541 7.1972656 33.782585 7.1972656 34.154297 L 7.1972656 60.185547 C 7.1972656 60.436779 7.2443681 60.521984 7.2832031 60.634766 C 7.3089401 60.920536 7.3810121 61.213037 7.5292969 61.472656 L 7.5390625 61.492188 L 7.5527344 61.513672 C 7.6887714 61.731055 7.8397199 61.919063 8.0019531 62.083984 C 8.3065427 62.411071 8.6444177 62.691165 9.0332031 62.900391 L 9.0488281 62.916016 L 9.0625 62.923828 C 9.5115139 63.148565 10.012288 63.251953 10.501953 63.251953 L 53.498047 63.251953 C 54.353541 63.251953 55.196933 62.87292 55.800781 62.251953 C 56.421749 61.648151 56.802734 60.804643 56.802734 59.949219 L 56.802734 34.154297 C 56.802734 33.298826 56.421726 32.455341 55.800781 31.851562 C 55.19691 31.230503 54.353472 30.849609 53.498047 30.849609 L 52.494141 30.849609 L 52.494141 21.253906 C 52.494141 19.380249 52.252578 17.564344 51.765625 15.806641 C 51.281936 14.061461 50.584403 12.425773 49.675781 10.921875 L 49.669922 10.917969 C 48.783739 9.3998278 47.718841 8.0157172 46.474609 6.7714844 C 45.230376 5.5272286 43.841054 4.4568738 42.322266 3.5703125 C 40.817908 2.6607491 39.187114 1.9588964 37.439453 1.4746094 C 35.681175 0.98738097 33.859985 0.74804688 31.986328 0.74804688 z M 31.986328 7.3554688 L 31.988281 7.3554688 C 33.914186 7.3557204 35.691864 7.722155 37.359375 8.4550781 L 37.369141 8.4589844 L 37.373047 8.4628906 C 39.077875 9.1855641 40.542715 10.174722 41.792969 11.443359 L 41.798828 11.447266 L 41.802734 11.453125 C 43.072267 12.704228 44.060783 14.164933 44.783203 15.869141 L 44.787109 15.873047 L 44.792969 15.882812 C 45.525547 17.549426 45.886719 19.327535 45.886719 21.255859 L 45.886719 30.851562 L 18.087891 30.851562 L 18.087891 21.255859 C 18.087891 19.326524 18.445778 17.547267 19.160156 15.878906 L 19.160156 15.873047 C 19.904039 14.163301 20.897816 12.701794 22.150391 11.449219 C 23.425301 10.174309 24.888256 9.18152 26.574219 8.4589844 L 26.580078 8.4589844 C 28.26973 7.7243827 30.060458 7.3557219 31.986328 7.3554688 z "
     id="lockOutline" />
  <path
     style="fill:#cccccc;fill-opacity:1;stroke:none;stroke-width:0"
     d="M 31.986328 3.046875 C 30.288347 3.046875 28.669434 3.2613272 27.117188 3.6914062 C 25.575673 4.1243347 24.131371 4.7358707 22.78125 5.5234375 C 21.429153 6.3121762 20.203761 7.2571765 19.095703 8.3652344 C 17.986634 9.4742805 17.039772 10.698248 16.251953 12.048828 C 15.465627 13.396789 14.85763 14.850465 14.423828 16.416016 C 13.993312 17.969503 13.777344 19.576928 13.777344 21.253906 L 13.777344 33.148438 L 10.501953 33.148438 C 10.320119 33.148438 10.208417 33.177276 10.101562 33.228516 C 9.9767625 33.297729 9.8416898 33.409 9.6992188 33.542969 C 9.6415406 33.623695 9.5907647 33.703928 9.5585938 33.798828 C 9.5142437 33.933234 9.4960938 34.047213 9.4960938 34.154297 L 9.4960938 60.185547 C 9.4960938 59.950705 9.473114 60.009297 9.5 60.091797 L 9.5585938 60.271484 L 9.5585938 60.369141 C 9.5873178 60.407513 9.622242 60.460136 9.640625 60.478516 L 9.6582031 60.496094 L 9.671875 60.509766 C 9.8347057 60.686247 9.9828743 60.797444 10.103516 60.865234 C 10.210852 60.917394 10.3172 60.949219 10.501953 60.949219 L 53.498047 60.949219 C 53.789952 60.949219 53.935121 60.892316 54.167969 60.648438 L 54.185547 60.630859 L 54.205078 60.613281 C 54.449254 60.380432 54.505859 60.235265 54.505859 59.943359 L 54.505859 34.154297 C 54.505859 33.862392 54.448957 33.719176 54.205078 33.486328 L 54.185547 33.466797 L 54.167969 33.449219 C 53.935121 33.205043 53.789952 33.148438 53.498047 33.148438 L 50.195312 33.148438 L 50.195312 21.255859 C 50.195313 19.578905 49.979275 17.969572 49.548828 16.416016 C 49.116681 14.856532 48.502963 13.423511 47.701172 12.099609 L 47.695312 12.089844 L 47.691406 12.080078 C 46.902668 10.72798 45.957644 9.5045424 44.849609 8.3964844 C 43.741574 7.2884495 42.511679 6.3391294 41.160156 5.5507812 L 41.152344 5.546875 L 41.142578 5.5410156 C 39.817757 4.7386502 38.389034 4.1253688 36.830078 3.6933594 C 35.277097 3.2630736 33.663328 3.046875 31.986328 3.046875 z M 31.986328 5.0566406 C 34.208717 5.0566406 36.320893 5.4908987 38.283203 6.3535156 C 40.240366 7.1854093 41.964072 8.344178 43.421875 9.8222656 L 43.427734 9.828125 C 44.902839 11.284112 46.061259 13.001247 46.892578 14.957031 C 47.75577 16.920789 48.183594 19.033194 48.183594 21.253906 L 48.183594 33.148438 L 15.789062 33.148438 L 15.789062 21.253906 C 15.789062 19.035768 16.210431 16.92766 17.050781 14.966797 L 17.050781 14.962891 C 17.902529 13.003936 19.064097 11.28163 20.523438 9.8222656 C 22.00038 8.3453452 23.719079 7.1828589 25.662109 6.3496094 C 27.64216 5.4887619 29.764007 5.0566406 31.986328 5.0566406 z "
     id="lockFill" />
  <path
     style="fill:#000000;fill-opacity:1;stroke:none;stroke-width:0"
     d="m 20.428642,44.934008 -7.071089,2.53492 7.071089,2.51713 v 2.21472 l -9.401435,-3.6912 v -2.09909 l 9.401435,-3.70009 z"
     id="leftAngle" />
  <path
     style="fill:#000000;fill-opacity:1;stroke:none;stroke-width:0"
     d="m 43.580868,44.934008 v -2.22361 l 9.40144,3.70009 v 2.09909 l -9.40144,3.6912 v -2.21472 l 7.07109,-2.51713 z"
     id="rightAngle" />
  <path
     style="fill:#000000;fill-opacity:1;stroke:none;stroke-width:0"
     d="m 34.303985,44.711648 7.924943,7.92496 v 4.36717 h -5.114296 v -1.9212 h -1.921201 v -1.9123 h -1.912308 v -1.92121 h -1.174067 l -2.170247,-2.17024 q -0.853867,0.24904 -1.769996,0.24904 -1.325273,0 -2.490446,-0.49809 -1.156279,-0.50698 -2.027935,-1.36975 -0.871656,-0.87165 -1.37864,-2.02793 -0.49809,-1.16517 -0.49809,-2.49044 0,-0.88056 0.222362,-1.69885 0.231255,-0.81828 0.649294,-1.52984 0.41804,-0.71156 0.99618,-1.2897 0.587033,-0.58703 1.298589,-1.00507 0.711557,-0.41804 1.529846,-0.6404 0.81829,-0.23126 1.69884,-0.23126 0.880551,0 1.689946,0.23126 0.818289,0.23125 1.529846,0.6493 0.711556,0.40914 1.289695,0.99617 0.587034,0.58703 1.005074,1.29859 0.418039,0.70267 0.6404,1.52095 0.231256,0.81829 0.231256,1.69885 0,0.91612 -0.249045,1.76999 z"
     id="keyOutline" />
  <path
     style="fill:#ffe680;fill-opacity:1;stroke:none;stroke-width:0"
     d="m 31.777961,46.552798 q 0.337989,-0.33799 0.578139,-0.69376 l 8.592038,8.58314 v -1.2719 q -4.046973,-4.08256 -8.129526,-8.12954 0.462511,-1.00506 0.462511,-2.09908 0,-1.04955 -0.409145,-1.98347 -0.40025,-0.93392 -1.094017,-1.62768 -0.693768,-0.69377 -1.627685,-1.09402 -0.933918,-0.40915 -1.983463,-0.40915 -1.058439,0 -1.992357,0.40025 -0.933917,0.40026 -1.627684,1.09402 -0.693768,0.69377 -1.094018,1.62769 -0.400251,0.93391 -0.400251,1.99236 0,1.05844 0.400251,1.99235 0.409144,0.92503 1.102912,1.61879 0.693767,0.69377 1.61879,1.10292 0.933918,0.40024 1.992357,0.40024 1.094018,0 2.099091,-0.46251 l 2.374819,2.37482 h 1.912307 v 1.92121 h 1.921202 v 1.9123 h 1.921201 v 1.9212 h 2.552705 z"
     id="keyFill" />
  <path
     style="fill:#000000;fill-opacity:1;stroke:none;stroke-width:0"
     d="m 26.886012,40.380058 q 0.266834,0 0.498089,0.10673 0.231256,0.0978 0.400251,0.27572 0.177889,0.169 0.275728,0.40026 0.106733,0.23125 0.106733,0.49809 0,0.26683 -0.106733,0.49808 -0.09784,0.23126 -0.275728,0.40915 -0.168995,0.16899 -0.400251,0.27573 -0.231255,0.0978 -0.498089,0.0978 -0.266833,0 -0.498089,-0.0978 -0.231256,-0.10674 -0.409145,-0.27573 -0.168995,-0.17789 -0.275727,-0.40915 -0.09784,-0.23125 -0.09784,-0.49808 0,-0.26684 0.09784,-0.49809 0.106732,-0.23126 0.275727,-0.40026 0.177889,-0.17788 0.409145,-0.27572 0.231256,-0.10673 0.498089,-0.10673 z"
     id="keyDot" />
</svg>
